<svg xmlns="http://www.w3.org/2000/svg" viewBox="0 0 420 360" role="img" aria-labelledby="title desc">
  <title id="title">双城记原创白猫图标</title>
  <desc id="desc">一个原创白猫头像图标，带红色蝴蝶结和粉色腮红。</desc>
  <rect width="420" height="360" rx="34" fill="#fff7f3"/>
  <circle cx="104" cy="92" r="36" fill="#efdcd4"/>
  <circle cx="328" cy="96" r="38" fill="#dce9dd"/>
  <path d="M88 298c58-35 104-35 152-13 38 18 82 9 132-28v62H88Z" fill="#7796a8" opacity=".84"/>
  <path d="M96 288c42-46 91-55 154-24 48 24 74 7 112-6v54H96Z" fill="#8ea48f"/>
  <rect x="72" y="156" width="58" height="116" fill="#f4eadf"/>
  <rect x="292" y="142" width="70" height="130" fill="#f4eadf"/>
  <rect x="88" y="180" width="14" height="18" fill="#c49355"/>
  <rect x="88" y="226" width="14" height="18" fill="#c49355"/>
  <path d="M112 145c28-20 56-25 88-9M256 135c34-15 63-10 88 12" fill="none" stroke="#c64e59" stroke-width="9" stroke-linecap="round"/>

  <g transform="translate(0 2)">
    <path d="M135 124c-13-52 17-78 58-38 20-31 62-31 82 0 41-40 71-14 58 38" fill="#fffdf8" stroke="#2a2521" stroke-width="8" stroke-linejoin="round"/>
    <path d="M153 112c-5-22 6-34 25-17M292 95c19-17 30-5 25 17" fill="#f4dce3" stroke="#2a2521" stroke-width="5" stroke-linejoin="round"/>

    <ellipse cx="210" cy="197" rx="108" ry="101" fill="#fffdf8" stroke="#2a2521" stroke-width="8"/>

    <path d="M138 118c-24-36 15-61 54-22 19-43 67-33 73 11-40 2-79 6-127 11Z" fill="#c64e59" stroke="#2a2521" stroke-width="7" stroke-linejoin="round"/>
    <path d="M190 96c17 18 18 37 11 59" fill="none" stroke="#2a2521" stroke-width="6" stroke-linecap="round"/>

    <circle cx="173" cy="186" r="8" fill="#2a2521"/>
    <circle cx="251" cy="186" r="8" fill="#2a2521"/>
    <ellipse cx="151" cy="207" rx="15" ry="13" fill="#f0c7cc"/>
    <ellipse cx="274" cy="207" rx="15" ry="13" fill="#f0c7cc"/>
    <path d="M208 196c8 9 18 9 26 0" fill="none" stroke="#2a2521" stroke-width="6" stroke-linecap="round"/>
    <path d="M202 221c17 24 39 23 55 0" fill="none" stroke="#c64e59" stroke-width="7" stroke-linecap="round"/>

    <path d="M89 191c38-4 69 2 98 17M91 224c38-12 70-12 97 0M321 191c-38-4-69 2-98 17M319 224c-38-12-70-12-97 0" fill="none" stroke="#2a2521" stroke-width="5" stroke-linecap="round"/>
    <path d="M152 282c42 34 126 34 168 0" fill="none" stroke="#2a2521" stroke-width="8" stroke-linecap="round"/>
  </g>
</svg>
